# xmcd
#
# Track frame offsets:
#	150
#	17878
#	34847
#	51232
#	67769
#	82324
#	96260
#	114492
#	132054
#	148111
#
# Disc length: 2191 seconds
#
# Revision: 1
# Processed by: cddbd v1.5.1PL0 Copyright (c) Steve Scherf et al.
# Submitted via: audiograbber 1.83.01
#
DISCID=8a088d0a
DTITLE=Hari Roncevic - Jucer, danas,...?
DYEAR=2001
DGENRE=
TTITLE0=Vise ne zelim te
TTITLE1=Zauvik odlazim
TTITLE2=Kome ces sad
TTITLE3=Kada ljubim
TTITLE4=Rastanak bez suza
TTITLE5=Necu ic vanka
TTITLE6=Sve bih dao
TTITLE7=Jesam li vrijedan sad
TTITLE8=Uzmi me nocas
TTITLE9=Danas
EXTD=
EXTT0=
EXTT1=
EXTT2=
EXTT3=
EXTT4=
EXTT5=
EXTT6=
EXTT7=
EXTT8=
EXTT9=
PLAYORDER=
